<svg xmlns="http://www.w3.org/2000/svg">
    <symbol viewBox="0 0 50 53" fill="none" xmlns="http://www.w3.org/2000/svg" id="cat-advantages-weightloss">
      <circle cx="25" cy="28" r="25" fill="#68B738"/>
      <g clip-path="url(#clip0_94_6)">
      <path d="M35.2034 0H35.008C34.6778 0.187081 34.415 0.473924 34.2571 0.819588C33.968 1.37738 33.7453 1.96735 33.5937 2.57732C33.5612 2.76073 33.4688 2.92811 33.331 3.05315C33.1932 3.17818 33.0179 3.25377 32.8326 3.26804C32.2658 3.36597 31.7288 3.59243 31.2626 3.93012C30.7965 4.26781 30.4135 4.7078 30.1429 5.21649C29.7708 5.87697 29.4526 6.5665 29.1914 7.27835C28.4611 9.17526 27.9006 11.134 27.2114 13.0464C26.8874 13.9175 26.872 13.9175 25.8949 13.9175C24.7274 13.9175 24.8097 13.7371 24.7943 15.0258C24.7943 15.433 24.9177 15.6392 25.3497 15.6186C25.4834 15.6186 25.684 15.5515 25.7354 15.7268C25.7869 15.9021 25.612 15.9794 25.5091 16.0825C24.8994 16.7029 24.1276 17.1388 23.2823 17.3402C22.3051 17.6031 21.3074 17.8093 20.356 18.1289C17.9131 18.9485 15.6554 20.0928 13.8966 22.0309C12.8681 23.2347 12.0445 24.6001 11.4589 26.0722C9.57143 30.5258 8.656 35.2165 7.94629 39.9536C7.612 42.1753 7.37543 44.4072 7.19543 46.6546C7.10286 47.7577 7 48.8763 7 50H24.1411C24.1696 49.7731 24.1283 49.5429 24.0229 49.3402C23.858 48.9289 23.5901 48.5672 23.2451 48.29C22.9 48.0128 22.4895 47.8295 22.0531 47.7577C21.6931 47.6753 21.652 47.567 21.8731 47.2835C22.2338 46.801 22.5103 46.2607 22.6909 45.6856C23.5291 43.2062 23.8531 40.6186 24.2594 38.0567C24.4889 36.0999 25.0894 34.2051 26.0286 32.4742C26.7611 31.2002 27.7382 30.0842 28.9034 29.1907C29.3303 28.866 29.3457 28.866 29.4177 29.4175C29.4691 29.7835 29.4794 30.1598 29.5051 30.5309C29.6595 32.9662 29.6285 35.4097 29.4126 37.8402C29.2184 39.7242 29.1926 41.6217 29.3354 43.5103C29.5399 45.7029 29.9304 47.8739 30.5029 50H37.3429C37.2536 49.442 36.9973 48.9243 36.6078 48.5156C36.2184 48.1069 35.7143 47.8264 35.1623 47.7113C34.5177 47.6087 33.8587 47.6438 33.2286 47.8144C32.92 47.8866 32.7914 47.8144 32.7657 47.4794C32.5529 44.7505 32.7261 42.0051 33.28 39.3247C33.966 36.2304 34.4912 33.1025 34.8537 29.9536C34.9887 28.6819 35.3881 27.4528 36.0263 26.3454C36.6383 25.2526 37.1731 24.1186 37.7749 23.0206C38.0138 22.6214 38.1575 22.1723 38.195 21.7083C38.2325 21.2443 38.1626 20.7779 37.9909 20.3454C37.852 19.9794 37.7183 19.6082 37.5486 19.2577C37.0343 18.2526 36.52 17.2577 36.0469 16.2423C35.7949 15.7268 35.8514 15.6649 36.412 15.6495C37.2503 15.6495 37.2503 15.6495 37.2657 14.8041C37.2657 14.6907 37.2657 14.5773 37.2657 14.4639C37.2657 14.1082 37.132 13.9124 36.7514 13.9485C36.4943 13.9485 36.2371 13.9485 35.9697 13.9485C35.6149 13.9485 35.512 13.799 35.5994 13.433C35.7729 12.838 36.1142 12.306 36.5823 11.9009C37.0503 11.4958 37.6252 11.2349 38.2377 11.1495C39.3772 11.0505 40.5251 11.1252 41.6423 11.3711C41.7712 11.4118 41.9109 11.4001 42.0312 11.3383C42.1515 11.2766 42.2427 11.1699 42.2851 11.0412C42.4909 10.5258 42.7171 10.0103 42.9486 9.49484C43.001 9.40339 43.0242 9.29801 43.015 9.19293C43.0058 9.08785 42.9647 8.98812 42.8971 8.90722C41.2514 6.81443 39.4669 4.86082 37.0343 3.60825C36.9168 3.55754 36.8138 3.47814 36.7347 3.3773C36.6557 3.27646 36.6031 3.15738 36.5817 3.03093C36.444 2.29408 36.225 1.57487 35.9286 0.886598C35.7895 0.519904 35.5349 0.20865 35.2034 0V0Z" fill="black"/>
      </g>
      <defs>
      <clipPath id="clip0_94_6">
      <rect width="36" height="50" fill="white" transform="translate(7)"/>
      </clipPath>
      </defs>
    </symbol>
    <symbol viewBox="0 0 67 50" fill="none" xmlns="http://www.w3.org/2000/svg" id="cat-advantages-weight">
      <circle cx="34" cy="25" r="25" fill="#68B738"/>
      <g clip-path="url(#clip0_95_1)">
      <path d="M61.5591 13.8784C62.1364 12.96 62.9036 12.1757 63.8091 11.5784C64.3091 11.2284 64.6091 11.2284 64.9091 11.8784C65.3091 12.8284 65.6591 13.8284 65.3591 14.8784C65.3045 15.0565 65.2942 15.2452 65.3291 15.4282C65.3639 15.6112 65.4429 15.7829 65.5591 15.9284C65.8591 16.3284 66.1091 16.7284 66.3591 17.0784C66.6994 17.5103 66.9201 18.0241 66.9991 18.5682C67.078 19.1123 67.0125 19.6676 66.8091 20.1784C66.6256 20.6743 66.5908 21.213 66.7091 21.7284C66.809 22.2234 66.809 22.7334 66.7091 23.2284C66.6687 23.5991 66.5187 23.9494 66.2782 24.2344C66.0377 24.5194 65.7177 24.7262 65.3591 24.8284C64.7196 24.9501 64.1488 25.3069 63.7591 25.8284C63.7119 25.9052 63.6457 25.9686 63.5669 26.0124C63.488 26.0562 63.3993 26.0789 63.3091 26.0784C62.7091 26.1784 61.2091 24.8284 61.2091 24.2284V23.9284C61.2591 22.1284 61.1591 21.9784 59.5091 21.2284C59.1638 21.1066 58.8544 20.9004 58.6091 20.6284C58.3091 20.2284 57.9091 20.2784 57.4591 20.4284C57.0091 20.5784 56.7591 20.8784 56.8091 21.3784C56.9599 22.5889 57.0101 23.8097 56.9591 25.0284C56.9624 25.1675 56.9966 25.3041 57.0591 25.4284C58.6091 27.6784 59.2091 30.3284 59.9591 32.8784C60.5591 34.8284 61.6591 35.8784 63.6591 36.0284C63.9792 36.054 64.2968 36.1041 64.6091 36.1784C65.02 36.2444 65.4017 36.4322 65.7048 36.7174C66.0078 37.0027 66.2183 37.3723 66.3091 37.7784C66.6591 38.8284 66.4591 39.0784 65.4091 39.0784H62.1591C61.7384 39.0997 61.3259 38.9562 61.0091 38.6784C60.5031 38.2514 59.9282 37.9132 59.3091 37.6784C58.6247 37.4258 58.0323 36.9728 57.6091 36.3784C57.0234 35.5602 56.3531 34.806 55.6091 34.1284C54.2091 32.6784 52.7091 31.2784 51.4091 29.7784C50.4195 28.7563 49.8486 27.4006 49.8091 25.9784C49.8091 25.5284 49.7091 25.3284 49.2091 25.5284C49.0594 25.6234 48.8864 25.6753 48.7091 25.6784C47.3091 25.6784 46.6091 26.5284 46.1091 27.7784C45.6591 28.8284 45.0591 29.8284 44.5091 30.8784C44.1972 31.5357 44.0269 32.2511 44.0091 32.9784C44.0091 34.1784 44.3091 34.5784 45.4091 34.9784C46.1091 35.2284 46.7591 35.4784 47.1091 36.1784C47.5091 36.9784 47.4091 37.1784 46.5591 37.2284H43.1591C42.9631 37.2478 42.7659 37.2052 42.5955 37.1065C42.425 37.0078 42.2899 36.8581 42.2091 36.6784L41.3091 35.1784C41.0438 34.7871 40.874 34.3389 40.8132 33.87C40.7524 33.4011 40.8024 32.9245 40.9591 32.4784C41.1755 31.6102 41.1926 30.7042 41.0091 29.8284C40.8831 29.2185 40.8939 28.5882 41.0409 27.9829C41.1879 27.3777 41.4674 26.8126 41.8591 26.3284C42.1591 25.9784 42.1591 25.8284 41.6591 25.7284C39.6146 25.2941 37.6325 24.6054 35.7591 23.6784C35.7459 23.6784 35.7331 23.6732 35.7238 23.6638C35.7144 23.6544 35.7091 23.6417 35.7091 23.6284C34.1091 23.0284 33.8091 23.1284 33.3591 24.7784C32.9591 26.1784 32.5591 27.5784 32.2591 29.0284C31.9091 30.6284 32.3091 32.1284 32.8091 33.6284C33.0091 34.2284 33.6091 34.1784 34.0591 34.3284C35.0591 34.6284 35.9091 35.0284 36.3091 36.0784C36.6591 36.8784 36.6091 36.9784 35.7591 36.9784C34.9091 36.9784 34.0591 36.9284 33.1591 36.9784C32.3997 36.9922 31.6584 36.7451 31.0591 36.2784C28.6591 34.6784 27.9591 32.2284 27.7591 29.5784C27.6591 27.9284 26.7591 26.6284 25.7091 25.3784C25.5091 25.1284 25.3091 25.0284 25.0091 25.2284C23.9359 25.8202 22.8153 26.3219 21.6591 26.7284C19.2462 27.5804 17.1289 29.1077 15.5591 31.1284C14.9729 31.8659 14.5933 32.746 14.4591 33.6784C14.3091 34.5784 14.5591 34.9784 15.4591 35.2284C16.3591 35.4784 16.8091 35.9784 16.9091 36.9284C16.9591 37.3284 16.8091 37.5284 16.4091 37.5284H12.3591C12.2266 37.519 12.0982 37.4778 11.9851 37.4081C11.8719 37.3385 11.7772 37.2425 11.7091 37.1284C11.081 36.3508 10.7449 35.3779 10.7591 34.3784C10.7329 32.6509 10.8837 30.9252 11.2091 29.2284C11.2759 28.7203 11.4656 28.2361 11.7618 27.8178C12.0581 27.3996 12.4519 27.06 12.9091 26.8284C15.8591 25.4284 17.4091 22.7784 18.8091 20.0284C19.1091 19.4784 18.8591 19.3784 18.3591 19.4284C16.9598 19.6227 15.634 20.1737 14.5091 21.0284C13.0362 22.1029 11.6487 23.2897 10.3591 24.5784C8.98394 25.9753 7.16046 26.8427 5.20911 27.0284C1.55911 27.2284 -0.140885 25.1784 0.00911497 21.8784C0.0426462 20.7532 0.466939 19.6748 1.20912 18.8284C1.46713 18.4939 1.81898 18.2439 2.21975 18.1103C2.62052 17.9767 3.05201 17.9656 3.45912 18.0784C4.20912 18.2784 4.40911 18.6784 4.10911 19.4284C3.95911 19.7284 3.75911 19.9784 3.60911 20.2784C3.39341 20.5849 3.22488 20.922 3.10911 21.2784C2.55911 22.7784 3.30911 23.8284 4.85911 23.9784C6.50911 24.1284 7.85912 23.4284 9.10912 22.4284C10.6151 21.2226 11.9595 19.8277 13.1091 18.2784C13.9687 17.1471 15.0512 16.2041 16.2895 15.5075C17.5279 14.8109 18.8959 14.3756 20.3091 14.2284C21.4591 14.0784 22.4591 13.5784 23.5591 13.2784C25.6164 12.6512 27.7586 12.3476 29.9091 12.3784C30.9052 12.4199 31.8974 12.2317 32.8091 11.8284C35.2591 10.8284 37.8091 10.8284 40.3591 11.3284C42.3591 11.7284 44.3591 12.2284 46.3091 12.7284C47.4696 12.9447 48.6629 12.9106 49.8091 12.6284C52.0034 12.0722 54.248 11.7372 56.5091 11.6284C57.9904 11.5564 59.4667 11.8482 60.8091 12.4784C61.8091 12.9284 61.8091 12.9284 61.5591 13.8784Z" fill="black"/>
      </g>
      <defs>
      <clipPath id="clip0_95_1">
      <rect width="67" height="28" fill="white" transform="translate(0 11)"/>
      </clipPath>
      </defs>
    </symbol>
    <symbol viewBox="0 0 61 60" fill="none" xmlns="http://www.w3.org/2000/svg" id="work-description-nutrients">
      <rect x="0.5" width="60" height="60" fill="#68B738"/>
      <g clip-path="url(#clip0_95_18)">
      <path d="M43.3438 16.767C43.2434 16.317 42.8647 16 42.4325 16C42.4306 16 42.4288 16 42.4269 16C37.4891 16.033 25.4816 16.916 20.6337 24.38C18.1156 28.258 17.8991 33.293 19.9897 39.345C20.0056 39.392 20.0384 39.424 20.06 39.467C19.3128 41.44 19.0231 42.753 19.0156 42.79C18.9069 43.33 19.2303 43.862 19.7366 43.978C19.8022 43.993 19.8678 44 19.9334 44C20.3656 44 20.7547 43.679 20.8494 43.21C20.8691 43.108 23.2578 32.837 31.7028 26.832C32.1341 26.526 32.2503 25.905 31.9625 25.445C31.6747 24.985 31.0934 24.86 30.6622 25.168C25.8734 28.573 22.9241 33.176 21.1897 36.824C19.9484 32.246 20.2737 28.447 22.1759 25.519C25.9194 19.755 34.7984 18.365 40.1581 18.071C39.005 19.872 37.745 23.174 37.745 29C37.745 32.12 36.9153 34.522 35.2803 36.14C32.6591 38.731 28.4009 38.974 25.2866 38.724C24.7691 38.679 24.32 39.095 24.2806 39.646C24.2412 40.196 24.6284 40.676 25.1441 40.718C25.7675 40.769 26.4331 40.8 27.125 40.8C30.2956 40.8 33.9941 40.137 36.5544 37.606C38.5888 35.595 39.62 32.7 39.62 29.001C39.62 19.902 42.8356 17.905 42.8516 17.896C43.2416 17.687 43.4459 17.219 43.3438 16.767Z" fill="white"/>
      </g>
      <defs>
      <clipPath id="clip0_95_18">
      <rect width="30" height="32" fill="white" transform="translate(15.5 14)"/>
      </clipPath>
      </defs>
    </symbol>
    <symbol viewBox="0 0 61 60" fill="none" xmlns="http://www.w3.org/2000/svg" id="work-description-powder">
      <rect x="0.5" width="60" height="60" fill="#68B738"/>
      <path d="M28.875 16C27.2437 16 25.975 17.3594 25.975 19.0812C25.975 20.8031 27.2437 22.1625 28.875 22.1625C30.5063 22.1625 31.775 20.8031 31.775 19.0812C31.775 17.3594 30.5063 16 28.875 16ZM28.875 17.1781C29.8719 17.1781 30.5969 18.0209 30.5969 19.0812C30.5969 20.0781 29.8084 20.9844 28.875 20.9844C27.8781 20.9844 27.1531 20.1416 27.1531 19.0812C27.1531 18.0844 27.9325 17.1781 28.875 17.1781ZM18 40.7406C18 41.9188 18.4078 42.9156 19.3594 43.7313C20.3563 44.5831 21.5344 44.5106 21.5344 44.5106H40.5656C41.345 44.5106 42.3781 44.13 43.1937 43.0606C44.0366 42.0638 43.9822 40.7044 43.9822 40.7044V23.4856C43.9822 23.0506 43.8734 22.8875 43.2391 22.8875C42.6047 22.8875 42.5503 23.1594 42.5503 23.4766V40.6953C42.5322 40.9944 42.4778 41.7828 41.8072 42.4172C41.0731 43.0425 40.3572 42.9609 40.3572 42.9609C40.3572 42.9609 22.2322 42.9609 21.3259 42.9338C20.9816 42.8703 20.4197 42.7434 19.8759 42.0275C19.3684 41.3025 19.4681 40.3962 19.4681 40.3962V23.1775C19.4681 22.7153 19.2325 22.5431 18.7431 22.5431C18.2538 22.5431 18 22.7153 18 23.1231V40.7406ZM34.3125 24.4281C33.225 24.6637 32.1375 24.8088 30.0531 26.7844C27.9688 28.7781 26.4281 28.6875 24.8875 28.5969C23.3469 28.5063 21.7156 27.0563 21.4438 26.6938C21.1084 26.3403 20.5375 26.5759 20.3562 26.8116C20.2022 27.0472 20.2022 27.455 20.465 27.8084C21.7338 28.9866 22.9119 29.8928 25.1775 30.0741C27.4431 30.2916 29.6181 29.2675 31.0681 27.8084C32.5181 26.3584 33.2431 26.0866 34.3306 25.9053C36.9587 25.4884 38.4994 26.5216 39.4056 27.1741C40.4025 28.2616 40.6744 27.9534 40.9462 27.6453C41.49 26.9294 40.7197 26.3766 39.8588 25.7422C38.0463 24.5641 36.3244 24.1109 34.3306 24.4734L34.3125 24.4281ZM25.25 31.5875C24.0719 31.5875 23.1656 32.5844 23.1656 33.8531C23.1656 35.1219 24.0719 36.1188 25.25 36.1188C26.4281 36.1188 27.3344 35.1219 27.3344 33.8531C27.3344 32.5844 26.4281 31.5875 25.25 31.5875ZM37.0312 32.3669C35.4906 32.3669 34.2219 33.7262 34.2219 35.3575C34.2219 36.9888 35.4906 38.3481 37.0312 38.3481C38.5719 38.3481 39.8406 36.9888 39.8406 35.3575C39.8406 33.7262 38.5719 32.3669 37.0312 32.3669ZM37.0312 33.8169C37.8288 33.8169 38.4813 34.5147 38.4813 35.3575C38.4813 36.2184 37.8288 36.8981 37.0312 36.8981C36.2337 36.8981 35.5812 36.2003 35.5812 35.3575C35.5812 34.4966 36.2337 33.8169 37.0312 33.8169Z" fill="white"/>
    </symbol>
    <symbol viewBox="0 0 61 60" fill="none" xmlns="http://www.w3.org/2000/svg" id="work-description-replacement">
      <rect x="0.5" width="60" height="60" fill="#68B738"/>
      <path fill-rule="evenodd" clip-rule="evenodd" d="M36.6173 15.0761C36.991 14.9214 37.4211 15.0069 37.7071 15.2929C38.6156 16.2014 39.8038 18.1706 40.7659 21.2108C41.7373 24.2804 42.5 28.5081 42.5 34C42.5 34.5523 42.0523 35 41.5 35H38V44C38 44.5523 37.5523 45 37 45C36.4477 45 36 44.5523 36 44V16C36 15.5956 36.2436 15.2309 36.6173 15.0761ZM38 33H40.4912C40.4053 28.1836 39.7051 24.4875 38.8591 21.8142C38.5807 20.9346 38.2885 20.1715 38 19.519V33Z" fill="white"/>
      <path fill-rule="evenodd" clip-rule="evenodd" d="M24 15C24.5523 15 25 15.4477 25 16V44C25 44.5523 24.5523 45 24 45C23.4477 45 23 44.5523 23 44V16C23 15.4477 23.4477 15 24 15Z" fill="white"/>
      <path fill-rule="evenodd" clip-rule="evenodd" d="M19.5 15C20.0523 15 20.5 15.4477 20.5 16V21.5C20.5 22.0569 20.692 22.8152 21.2009 23.4166C21.68 23.9828 22.5145 24.5 23.9999 24.5C24.5522 24.5 24.9999 24.9477 24.9999 25.5C24.9999 26.0523 24.5522 26.5 23.9999 26.5C21.9855 26.5 20.57 25.7672 19.6741 24.7084C18.808 23.6848 18.5 22.4431 18.5 21.5V16C18.5 15.4477 18.9477 15 19.5 15Z" fill="white"/>
      <path fill-rule="evenodd" clip-rule="evenodd" d="M28.5 15C27.9477 15 27.5 15.4477 27.5 16V21.5C27.5 22.0569 27.308 22.8152 26.7991 23.4166C26.32 23.9828 25.4854 24.5 23.9999 24.5C23.4476 24.5 23.0001 24.9477 23.0001 25.5C23.0001 26.0523 23.4476 26.5 23.9999 26.5C26.0144 26.5 27.43 25.7672 28.3259 24.7084C29.192 23.6848 29.5 22.4431 29.5 21.5V16C29.5 15.4477 29.0523 15 28.5 15Z" fill="white"/>
    </symbol>
    <symbol viewBox="0 0 61 60" fill="none" xmlns="http://www.w3.org/2000/svg" id="work-description-time">
      <rect x="0.5" width="60" height="60" fill="#68B738"/>
      <path d="M23.538 15C22.475 15 22.475 16.5831 23.538 16.5831H30.1815V18.1873C23.3786 18.62 18 24.4142 18 31.4854C18 35.4959 19.7432 39.1159 22.4963 41.5539C22.9746 41.976 23.0384 42.7254 22.6026 43.1897L21.0719 44.7412C20.3279 45.4272 21.4333 46.4931 22.103 45.7438L24.1014 43.7069C24.4521 43.3692 24.973 43.2847 25.4088 43.4958C27.1274 44.3397 29.0169 44.784 30.9341 44.795C32.8513 44.8059 34.7459 44.3833 36.4742 43.5591C36.8993 43.348 37.4308 43.4325 37.771 43.7702L39.7055 45.7438C40.3858 46.377 41.3638 45.4272 40.7472 44.7412L39.3016 43.2636C38.8552 42.8098 38.919 42.0605 39.4079 41.6277C40.8584 40.3585 42.0186 38.7959 42.8106 37.0447C43.6026 35.2936 44.0081 33.3944 43.9999 31.4748C43.9999 24.4036 38.5894 18.5989 31.7759 18.1873V16.5831H38.4194C39.4823 16.5831 39.4823 15 38.4194 15H23.538ZM19.435 31.4748C19.435 24.9419 24.6116 19.6543 30.9999 19.6543C37.3777 19.6543 42.5543 24.9419 42.5543 31.4748C42.5543 38.0183 37.3777 43.3164 30.9999 43.3164C24.6222 43.3164 19.435 38.0183 19.435 31.4748ZM30.1921 23.3799C30.1921 22.2823 31.8503 22.2823 31.8503 23.3799V32.0131C31.8503 32.237 31.7607 32.4517 31.6012 32.6101C31.4418 32.7684 31.2255 32.8574 30.9999 32.8574C30.7875 32.8574 30.5836 32.7743 30.4324 32.6262C30.2812 32.478 30.1949 32.2767 30.1921 32.0658V23.3799ZM25.2175 25.9973C25.5247 25.9973 25.8194 25.8761 26.0367 25.6603C26.254 25.4446 26.3761 25.152 26.3761 24.8469C26.3761 24.5418 26.254 24.2492 26.0367 24.0334C25.8194 23.8177 25.5247 23.6965 25.2175 23.6965C24.9307 23.7239 24.6645 23.8563 24.4707 24.0681C24.277 24.2798 24.1697 24.5556 24.1697 24.8416C24.1697 25.1277 24.277 25.4034 24.4707 25.6152C24.6645 25.8269 24.9307 25.9593 25.2175 25.9867V25.9973ZM36.7718 25.9973C37.0791 25.9973 37.3738 25.8761 37.5911 25.6603C37.8083 25.4446 37.9304 25.152 37.9304 24.8469C37.9304 24.5418 37.8083 24.2492 37.5911 24.0334C37.3738 23.8177 37.0791 23.6965 36.7718 23.6965C36.485 23.7239 36.2188 23.8563 36.0251 24.0681C35.8313 24.2798 35.724 24.5556 35.724 24.8416C35.724 25.1277 35.8313 25.4034 36.0251 25.6152C36.2188 25.8269 36.485 25.9593 36.7718 25.9867V25.9973ZM26.3761 38.5882C26.3761 40.1185 24.0588 40.1185 24.0588 38.5882C24.0588 37.0579 26.3761 37.0579 26.3761 38.5882ZM30.9999 42.0288C31.1607 42.0441 31.3229 42.0259 31.4762 41.9754C31.6294 41.9248 31.7703 41.843 31.8899 41.7352C32.0094 41.6273 32.1049 41.4959 32.1703 41.3493C32.2356 41.2026 32.2694 41.044 32.2694 40.8837C32.2694 40.7233 32.2356 40.5648 32.1703 40.4181C32.1049 40.2715 32.0094 40.14 31.8899 40.0322C31.7703 39.9244 31.6294 39.8426 31.4762 39.792C31.3229 39.7414 31.1607 39.7232 30.9999 39.7386C30.7132 39.7659 30.4469 39.8984 30.2532 40.1101C30.0595 40.3219 29.9522 40.5976 29.9522 40.8837C29.9522 41.1697 30.0595 41.4455 30.2532 41.6572C30.4469 41.869 30.7132 42.0014 30.9999 42.0288ZM22.9109 31.6437C22.9263 31.8033 22.908 31.9643 22.857 32.1165C22.8061 32.2687 22.7237 32.4086 22.6151 32.5273C22.5065 32.646 22.3741 32.7408 22.2264 32.8057C22.0788 32.8706 21.919 32.9041 21.7575 32.9041C21.596 32.9041 21.4363 32.8706 21.2886 32.8057C21.141 32.7408 21.0086 32.646 20.9 32.5273C20.7914 32.4086 20.709 32.2687 20.658 32.1165C20.6071 31.9643 20.5888 31.8033 20.6042 31.6437C20.6318 31.3589 20.7652 31.0946 20.9785 30.9023C21.1917 30.7099 21.4695 30.6033 21.7575 30.6033C22.0456 30.6033 22.3234 30.7099 22.5366 30.9023C22.7499 31.0946 22.8833 31.3589 22.9109 31.6437ZM40.237 32.794C40.3978 32.8094 40.56 32.7912 40.7132 32.7406C40.8665 32.6901 41.0074 32.6082 41.127 32.5004C41.2465 32.3926 41.342 32.2611 41.4074 32.1145C41.4727 31.9679 41.5065 31.8093 41.5065 31.6489C41.5065 31.4886 41.4727 31.33 41.4074 31.1834C41.342 31.0367 41.2465 30.9053 41.127 30.7975C41.0074 30.6896 40.8665 30.6078 40.7132 30.5573C40.56 30.5067 40.3978 30.4885 40.237 30.5038C39.9502 30.5312 39.684 30.6637 39.4903 30.8754C39.2966 31.0871 39.1892 31.3629 39.1892 31.6489C39.1892 31.935 39.2966 32.2108 39.4903 32.4225C39.684 32.6342 39.9502 32.7667 40.237 32.794ZM37.9304 38.5987C37.9304 40.1185 35.6132 40.1185 35.6132 38.5882C35.6132 37.0579 37.9304 37.0579 37.9304 38.5882V38.5987Z" fill="white"/>
    </symbol>
    <symbol viewBox="0 0 40 256" fill="none" xmlns="http://www.w3.org/2000/svg" id="slider-toggle">
      <rect x="18" width="4" height="256" rx="2" fill="#666666"/>
      <rect x="1" y="109" width="38" height="38" rx="19" fill="white"/>
      <path d="M16 119L8 128L16 137V119Z" fill="#666666"/>
      <path d="M32 128L24 119V137L32 128Z" fill="#666666"/>
      <rect x="1" y="109" width="38" height="38" rx="19" stroke="#666666" stroke-width="2"/>
    </symbol>
    <symbol viewBox="0 0 40 512" fill="none" xmlns="http://www.w3.org/2000/svg" id="slider-toggle-tablet">
      <rect x="18" width="4" height="512" rx="2" fill="#666666"/>
      <rect x="1" y="237" width="38" height="38" rx="19" fill="white"/>
      <path d="M16 247L8 256L16 265V247Z" fill="#666666"/>
      <path d="M32 256L24 247V265L32 256Z" fill="#666666"/>
      <rect x="1" y="237" width="38" height="38" rx="19" stroke="#666666" stroke-width="2"/>
    </symbol>
    <symbol viewBox="0 0 78 80" fill="none" xmlns="http://www.w3.org/2000/svg" id="gift-icon">
      <path d="M64.0156 34.7127H14.031C12.2766 34.7127 10.8494 33.2951 10.8494 31.5524V22.0842C10.8494 20.3415 12.2766 18.9233 14.031 18.9233H64.0149C65.7687 18.9233 67.1953 20.3415 67.1953 22.0842V31.553C67.1959 33.2951 65.7693 34.7127 64.0156 34.7127ZM14.031 21.3455C13.6276 21.3455 13.2869 21.684 13.2869 22.0842V31.553C13.2869 31.9599 13.6208 32.2912 14.031 32.2912H64.0149C64.4244 32.2912 64.7578 31.9599 64.7578 31.553V22.0842C64.7578 21.6834 64.4171 21.3455 64.0149 21.3455H14.031Z" fill="white"/>
      <path d="M57.0447 67.1488H20.999C17.6218 67.1488 14.8741 64.4191 14.8741 61.0626V33.5016C14.8741 32.8331 15.4201 32.2905 16.0929 32.2905C16.7656 32.2905 17.3116 32.8331 17.3116 33.5016V61.0626C17.3116 63.0833 18.9661 64.7267 20.999 64.7267H57.0447C59.077 64.7267 60.7308 63.0833 60.7308 61.0626V33.5016C60.7308 32.8331 61.2768 32.2905 61.9496 32.2905C62.6223 32.2905 63.1683 32.8331 63.1683 33.5016V61.0626C63.1683 64.4191 60.4213 67.1488 57.0447 67.1488Z" fill="white"/>
      <path d="M39.0225 67.1488C38.3498 67.1488 37.8038 66.6069 37.8038 65.9378V33.5016C37.8038 32.8331 38.3498 32.2905 39.0225 32.2905C39.6953 32.2905 40.2413 32.8331 40.2413 33.5016V65.9372C40.2413 66.6069 39.6959 67.1488 39.0225 67.1488Z" fill="white"/>
      <path d="M23.8113 21.3414C19.9966 19.2874 18.5731 14.5327 20.6383 10.7415C22.7022 6.95201 27.4864 5.53687 31.303 7.58721C37.117 10.7166 40.2565 19.4472 40.3869 19.8172L38.0877 20.6208C38.0585 20.5384 35.1256 12.3994 30.1433 9.71749C27.5078 8.30175 24.2062 9.27908 22.7821 11.8944C21.3567 14.5121 22.339 17.7941 24.9734 19.2117L23.8113 21.3414Z" fill="white"/>
      <path d="M54.2313 21.3413L53.071 19.2111C54.3477 18.5238 55.2782 17.3848 55.6926 16.0035C56.1063 14.6217 55.9534 13.1624 55.2617 11.895C54.5719 10.6264 53.4263 9.70233 52.0363 9.29117C50.6457 8.88001 49.1783 9.0314 47.9023 9.71747C42.9201 12.3988 39.9871 20.5378 39.9579 20.6202L37.6587 19.8166C37.7891 19.4466 40.928 10.716 46.7421 7.58719C48.5897 6.5929 50.7182 6.3737 52.7316 6.96955C54.7468 7.56479 56.4061 8.90484 57.4061 10.7414C58.4073 12.5774 58.6285 14.6913 58.0289 16.6939C57.4287 18.6958 56.0801 20.3458 54.2313 21.3413Z" fill="white"/>
      <path d="M61.9496 50.9314H16.0929C15.4201 50.9314 14.8741 50.3889 14.8741 49.7204C14.8741 49.0518 15.4201 48.5093 16.0929 48.5093H61.9496C62.6223 48.5093 63.1683 49.0518 63.1683 49.7204C63.1683 50.3889 62.6229 50.9314 61.9496 50.9314Z" fill="white"/>
    </symbol>
  </svg>
